<?xml version="1.0" standalone="no"?><!DOCTYPE svg PUBLIC "-//W3C//DTD SVG 1.1//EN" "http://www.w3.org/Graphics/SVG/1.1/DTD/svg11.dtd"><svg t="1608550279371" class="icon" viewBox="0 0 1024 1024" version="1.1" xmlns="http://www.w3.org/2000/svg" p-id="7558" xmlns:xlink="http://www.w3.org/1999/xlink" width="32" height="32"><defs><style type="text/css"></style></defs><path d="M901.70368 463.73888l-55.86944-55.86944c-13.2608-13.2608-24.12544-39.49568-24.12544-58.2656v-79.03232c0-37.5296-30.69952-68.22912-68.27008-68.27008H674.4064c-18.76992 0-45.0048-10.86464-58.2656-24.13568l-55.8592-55.86944c-26.54208-26.53184-70.00064-26.53184-96.54272 0l-55.8592 55.90016c-13.27104 13.2608-39.53664 24.13568-58.2656 24.13568h-79.0016c-37.5296 0-68.27008 30.69952-68.27008 68.27008v78.96064c0 18.76992-10.86464 45.0048-24.12544 58.2656l-55.86944 55.90016c-26.56256 26.53184-26.56256 69.96992 0 96.5632l55.86944 55.86944c13.27104 13.27104 24.12544 39.5264 24.12544 58.2656v79.0016c0 37.5296 30.74048 68.27008 68.27008 68.27008h79.0016c18.76992 0 45.0048 10.86464 58.2656 24.12544l55.8592 55.86944c26.54208 26.53184 70.00064 26.53184 96.54272 0L616.1408 845.824c13.27104-13.27104 39.49568-24.12544 58.2656-24.12544h79.03232c37.57056 0 68.27008-30.74048 68.27008-68.27008v-79.0016c0-18.80064 10.87488-45.0048 24.12544-58.2656l55.86944-55.86944c26.5216-26.59328 26.5216-70.03136 0-96.55296zM797.57312 567.90016c-25.99936 25.93792-44.14464 69.79584-44.14464 106.53696v79.0016h-79.03232c-36.73088 0-80.56832 18.13504-106.52672 44.1344L512 853.44256l-55.86944-55.86944c-25.99936-25.99936-69.79584-44.1344-106.52672-44.1344h-79.0016v-79.0016c0-36.74112-18.13504-80.5376-44.1344-106.53696L170.5984 512l55.86944-55.90016c25.99936-25.96864 44.1344-69.76512 44.1344-106.53696v-78.96064h79.0016c36.73088 0 80.52736-18.16576 106.52672-44.1344L512 170.56768l55.87968 55.86944c25.9584 25.99936 69.79584 44.1344 106.52672 44.1344h79.03232v79.03232c0 36.73088 18.13504 80.5376 44.14464 106.53696L853.43232 512l-55.8592 55.90016z" fill="#31c2b3"></path><path d="M355.46112 466.69824l102.35904 102.36928L668.52864 358.4 716.8 406.66112 457.82016 665.6 307.2 514.9696z" fill="#31c2b3"></path></svg>